# xmcd
#
# Track frame offsets:
#	150
#	21407
#	60336
#	86361
#	106505
#	139793
#	172204
#	209841
#	244991
#	263000
#	294177
#	324512
#
# Disc length: 4658 seconds
#
# Revision: 0
# Processed by: cddbd v1.5.2PL0 Copyright (c) Steve Scherf et al.
# Submitted via: EZCDAudioConverter 2.1.7.1
#
DISCID=a812300c
DTITLE=V/A - Eskimonde 3/5
DYEAR=1900
DGENRE=
TTITLE0=Aeroplane - We Can't Fly [Oliver Remix]
TTITLE1=Low Motion Disco - Love Love Love [Solomun Edit]
TTITLE2=Kris Menace Presents Stars On 33 - Something You Can Feel [Reverso 68 
TTITLE2=Remix]
TTITLE3=West Phillips - (I'm Just A) Sucker For A Pretty Face [Surrender! Remi
TTITLE3=x]
TTITLE4=Dirty Minds - I'm For Pleasure [Claptone Remix]
TTITLE5=L.H.A.S. INC. - A Feeling [It's A Fine Line Remix]
TTITLE6=Aeroplane - I Don't Feel [Deetron Remix]
TTITLE7=Dr. Beat From San Sebastian - Mediterraneo [DJ Harvey's 'Beach To The 
TTITLE7=Bar' Remix]
TTITLE8=Blende - Fake Love [The Living Islands 'Tropical Doom' Dub]
TTITLE9=Jean Winner - Alive And Kicking [Zimmer Remix]
TTITLE10=Drop Out Orchestra - Sun Machine [diskJokke Remix]
TTITLE11=Allez Allez - African Queen [Moonlight Matters 'I Love Grace Jones' R
TTITLE11=emix]
EXTD=
EXTT0=
EXTT1=
EXTT2=
EXTT3=
EXTT4=
EXTT5=
EXTT6=
EXTT7=
EXTT8=
EXTT9=
EXTT10=
EXTT11=
PLAYORDER=
